<svg width="50" height="64" viewBox="0 0 50 64" fill="none" xmlns="http://www.w3.org/2000/svg">
<path d="M10.5328 14.2205C10.6142 14.0748 10.6555 13.9147 10.6534 13.7528V8.00717H15.4801V13.7528C15.4781 13.9147 15.5194 14.0748 15.6008 14.2205L22.3645 25.9487L24.5245 25.0134L17.8935 13.5059V1.19853C17.8935 0.921067 17.7664 0.654965 17.5401 0.458766C17.3138 0.262567 17.0069 0.152344 16.6868 0.152344H9.44675C9.12672 0.152344 8.8198 0.262567 8.5935 0.458766C8.36721 0.654965 8.24007 0.921067 8.24007 1.19853V13.5059L1.1267 25.8395C1.0432 25.9847 0.999826 26.1448 1 26.3071V61.8776C1 62.1551 1.12713 62.4212 1.35343 62.6174C1.57972 62.8136 1.88665 62.9238 2.20668 62.9238H17.8935V60.8314H3.41336V26.554L10.5328 14.2205ZM15.4801 2.24472V5.91479H10.6534V2.24472H15.4801Z" fill="#123C5F" stroke="white" stroke-width="0.3"/>
<path d="M48.8276 37.0605L44.0779 28.7488V24.1517C44.0779 23.8253 43.9482 23.5122 43.7174 23.2814C43.4866 23.0506 43.1735 22.9209 42.8471 22.9209H23.1541C22.8276 22.9209 22.5146 23.0506 22.2838 23.2814C22.0529 23.5122 21.9233 23.8253 21.9233 24.1517V28.7488L17.1625 37.0752C17.0549 37.2624 16.9989 37.4748 17 37.6906V62.3069C17 62.6333 17.1297 62.9464 17.3605 63.1772C17.5913 63.408 17.9044 63.5377 18.2308 63.5377H47.7703C48.0967 63.5377 48.4098 63.408 48.6406 63.1772C48.8714 62.9464 49.0011 62.6333 49.0011 62.3069V37.6906C49.0015 37.4687 48.9415 37.2509 48.8276 37.0605ZM45.6496 36.4598H40.0445L42.8471 31.5563L45.6496 36.4598ZM24.3849 25.3825H41.6162V27.8441H24.3849V25.3825ZM23.8679 30.3058H40.7301L37.2099 36.4598H20.3478L23.8679 30.3058ZM36.693 61.0761H19.4616V38.9214H36.693V61.0761ZM46.5395 61.0761H39.1546V38.9214H46.5395V61.0761Z" fill="#123C5F" stroke="white" stroke-width="0.3"/>
</svg>
