<svg width="51" height="64" viewBox="0 0 51 64" fill="none" xmlns="http://www.w3.org/2000/svg">
<path d="M50.1508 22.2798L42.6667 9.18303V1.93939C42.6667 1.42503 42.4624 0.931741 42.0987 0.568034C41.735 0.204327 41.2417 0 40.7273 0H9.697C9.18264 0 8.68934 0.204327 8.32564 0.568034C7.96193 0.931741 7.7576 1.42503 7.7576 1.93939V9.18303L0.256027 22.303C0.0865485 22.598 -0.00178012 22.9326 2.71877e-05 23.2727V62.0606C2.71877e-05 62.575 0.204354 63.0683 0.568061 63.432C0.931768 63.7957 1.42506 64 1.93942 64H48.4849C48.9992 64 49.4925 63.7957 49.8562 63.432C50.2199 63.0683 50.4243 62.575 50.4243 62.0606V23.2727C50.4249 22.9231 50.3303 22.5798 50.1508 22.2798ZM45.1433 21.3333H36.3113L40.7273 13.6068L45.1433 21.3333ZM11.6364 3.87879H38.7879V7.75758H11.6364V3.87879ZM10.8218 11.6364H37.3915L31.8449 21.3333H5.27518L10.8218 11.6364ZM31.0303 60.1212H3.87882V25.2121H31.0303V60.1212ZM46.5455 60.1212H34.9091V25.2121H46.5455V60.1212Z" fill="#123C5F"/>
</svg>
